<svg xmlns="http://www.w3.org/2000/svg" fill="none" viewBox="0 20 111 11" width="111" height="111" class="h-full" version="1.1" xmlns:xlink="http://www.w3.org/1999/xlink"><path fill="#30302f" d="M49.633 5.98v3.927h-1.565V5.98L44.7.163h1.742L48.85 4.4 51.272.163h1.727L49.633 5.98ZM58.446 1.433c-2.022 0-3.499 1.535-3.499 3.587 0 2.082 1.477 3.617 3.5 3.617 1.992 0 3.498-1.535 3.498-3.617 0-2.037-1.506-3.587-3.499-3.587ZM58.432 0c2.76-.044 5.182 2.245 5.122 5.035.06 2.79-2.362 5.079-5.123 5.034-2.79.045-5.167-2.244-5.108-5.034C53.28 2.245 55.656-.044 58.431 0ZM65.326.163h1.565v5.906c0 1.653 1.018 2.569 2.45 2.569 1.418 0 2.422-.916 2.422-2.57V.164h1.565v5.802c0 2.569-1.698 4.105-3.986 4.105-2.333 0-4.016-1.536-4.016-4.105V.163ZM77.24 4.755h1.963c1.078 0 1.727-.65 1.727-1.595 0-.96-.65-1.61-1.727-1.61H77.24v3.205Zm4.562 5.152-2.776-3.765h-1.787v3.765h-1.565V.163h3.558c1.964 0 3.308 1.225 3.308 2.982 0 1.285-.709 2.289-1.875 2.746l2.923 4.016h-1.786ZM49.101 18.473h-2.51v3.026h2.51c1.078 0 1.713-.575 1.713-1.505 0-.93-.635-1.521-1.713-1.521Zm-2.51-3.972v2.628h1.728c.96 0 1.505-.517 1.505-1.329 0-.811-.546-1.299-1.505-1.299H46.59Zm2.643 8.371h-4.178v-9.744h3.41c1.757 0 2.923 1.093 2.923 2.599 0 .753-.28 1.373-.812 1.83 1.137.37 1.817 1.285 1.817 2.48 0 1.64-1.256 2.835-3.16 2.835ZM54.076 13.128h1.565v5.906c0 1.653 1.019 2.569 2.45 2.569 1.418 0 2.422-.916 2.422-2.57v-5.905h1.565v5.802c0 2.57-1.698 4.105-3.986 4.105-2.333 0-4.016-1.536-4.016-4.105v-5.802ZM64.765 20.082c.65.945 1.432 1.55 2.554 1.55 1.004 0 1.683-.531 1.683-1.358 0-.694-.413-.99-1.432-1.462l-1.078-.502c-1.417-.65-2.273-1.402-2.273-2.702 0-1.594 1.387-2.642 3.07-2.642 1.373 0 2.54.694 3.145 1.742l-1.092.841c-.517-.767-1.226-1.18-2.052-1.18-.827 0-1.477.413-1.477 1.18.059.768.399.901 1.358 1.388l1.093.502c1.58.724 2.333 1.491 2.333 2.776 0 1.698-1.388 2.82-3.263 2.82-1.595 0-2.924-.798-3.677-2.111l1.108-.842ZM72.604 13.128h1.565v9.744h-1.565v-9.744ZM84.65 13.128v9.907h-.53l-5.936-6.762v6.6H76.62v-9.907h.546l5.92 6.732v-6.57h1.565ZM87.116 13.128h6.407v1.403h-4.842v2.495h3.647v1.358H88.68v3.086h5.02v1.402h-6.585v-9.744ZM95.93 20.082c.65.945 1.432 1.55 2.554 1.55 1.004 0 1.683-.531 1.683-1.358 0-.694-.414-.99-1.432-1.462l-1.078-.502c-1.417-.65-2.274-1.402-2.274-2.702 0-1.594 1.388-2.642 3.071-2.642 1.373 0 2.54.694 3.145 1.742l-1.093.841c-.516-.767-1.225-1.18-2.052-1.18-.826 0-1.476.413-1.476 1.18.059.768.398.901 1.358 1.388l1.092.502c1.58.724 2.333 1.491 2.333 2.776 0 1.698-1.388 2.82-3.263 2.82-1.594 0-2.923-.798-3.675-2.111l1.107-.842ZM104.109 20.082c.649.945 1.432 1.55 2.554 1.55 1.004 0 1.683-.531 1.683-1.358 0-.694-.413-.99-1.432-1.462l-1.078-.502c-1.417-.65-2.274-1.402-2.274-2.702 0-1.594 1.388-2.642 3.071-2.642 1.373 0 2.54.694 3.145 1.742l-1.093.841c-.516-.767-1.225-1.18-2.052-1.18-.826 0-1.476.413-1.476 1.18.059.768.399.901 1.358 1.388l1.093.502c1.579.724 2.333 1.491 2.333 2.776 0 1.698-1.388 2.82-3.264 2.82-1.594 0-2.923-.798-3.676-2.111l1.108-.842ZM53.161 26.093V36h-.531l-5.935-6.762v6.6h-1.566V25.93h.547l5.92 6.732v-6.57h1.565ZM55.523 26.093h1.565V32c0 1.654 1.019 2.569 2.45 2.569 1.418 0 2.422-.915 2.422-2.569v-5.905h1.565v5.801c0 2.57-1.698 4.105-3.986 4.105-2.333 0-4.016-1.536-4.016-4.105v-5.802ZM75.129 25.931v9.906h-1.565v-6.112l-2.79 3.662h-.532l-2.805-3.676v6.127h-1.565V25.93h.546l4.09 5.448 4.09-5.448h.53ZM81.624 31.438h-2.51v3.026h2.51c1.078 0 1.713-.575 1.713-1.505 0-.93-.635-1.521-1.713-1.521Zm-2.51-3.972v2.628h1.728c.96 0 1.506-.516 1.506-1.328s-.546-1.3-1.506-1.3h-1.727Zm2.643 8.371H77.58v-9.743h3.41c1.757 0 2.924 1.092 2.924 2.598 0 .753-.28 1.373-.812 1.83 1.137.37 1.816 1.285 1.816 2.48 0 1.64-1.255 2.835-3.16 2.835ZM86.703 26.094h6.407v1.402h-4.842v2.495h3.647v1.358h-3.647v3.086h5.02v1.402h-6.585v-9.743ZM96.668 30.685h1.964c1.077 0 1.727-.65 1.727-1.595 0-.96-.65-1.609-1.727-1.609h-1.964v3.204Zm4.562 5.152-2.776-3.764h-1.786v3.764h-1.565v-9.743h3.558c1.964 0 3.307 1.225 3.307 2.982 0 1.284-.708 2.288-1.875 2.746l2.923 4.015h-1.786Z"></path><path fill="#30302f" d="M5.012 10.056a5.012 5.012 0 1 0 0-10.024 5.012 5.012 0 0 0 0 10.024Z"></path><path fill="#30302f" d="M19.927 10.056a5.012 5.012 0 1 0 0-10.024 5.012 5.012 0 0 0 0 10.024Z"></path><path fill="#30302f" d="M34.818 10.056a5.012 5.012 0 1 0 0-10.024 5.012 5.012 0 0 0 0 10.024Z"></path></svg>