<svg width="206" height="104" viewBox="0 0 206 104" fill="none" xmlns="http://www.w3.org/2000/svg">
<g opacity="0.1">
<path d="M98.3935 34.4633C98.3257 33.7618 98.1888 33.0434 98.0166 32.3419C96.4937 14.6151 81.6248 0.686035 63.5038 0.686035C44.357 0.686035 28.8359 16.2056 28.8359 35.3539C28.8359 53.9533 43.4833 69.0805 61.8609 69.9357C57.429 76.9347 50.293 82.5987 41.5835 85.2678L41.2928 85.3538C37.2547 86.586 34.4657 90.521 34.8415 94.902C35.2691 99.9492 39.7008 103.698 44.7664 103.269C59.6707 102.003 74.5735 94.3882 84.7062 82.016C89.7885 75.8552 93.7236 68.6008 96.1187 60.6955C98.5308 52.8073 99.3522 44.2853 98.5308 35.8847L98.3935 34.4633Z" fill="#A0A0A0"/>
<path d="M176.714 34.4633C176.646 33.7618 176.509 33.0434 176.337 32.3419C174.814 14.6151 159.945 0.686035 141.824 0.686035C122.677 0.686035 107.156 16.2056 107.156 35.3539C107.156 53.9533 121.804 69.0805 140.181 69.9357C135.749 76.9347 128.613 82.5987 119.904 85.2678L119.613 85.3538C115.575 86.586 112.786 90.521 113.162 94.902C113.589 99.9492 118.021 103.698 123.087 103.269C137.991 102.003 152.894 94.3882 163.027 82.016C168.109 75.8552 172.044 68.6008 174.439 60.6955C176.851 52.8073 177.673 44.2853 176.851 35.8847L176.714 34.4633Z" fill="#A0A0A0"/>
</g>
</svg>
