<svg width="287" height="304" fill="none" xmlns="http://www.w3.org/2000/svg"><mask id="contact-section-mask_svg__a" style="mask-type:alpha" maskUnits="userSpaceOnUse" x="-17" y="0" width="304" height="304"><circle cx="135" cy="152" r="152" fill="#C4C4C4"></circle></mask><g mask="url(#contact-section-mask_svg__a)" stroke="#FF782C" strokeMiterlimit="10"><path d="M-57.682 73.484s62.97-11.665 79.217-52.49c15.538-39.136 79.544-49.656 79.544-49.656"></path><path d="M-57.682 93.106s77.255-13.463 97.154-62.737C58.445-16.671 136.9-28.662 136.9-28.662"></path><path d="M-57.682 112.783s91.484-15.316 115.037-72.93c22.462-55.106 115.363-68.515 115.363-68.515"></path><path d="M-57.682 132.406S48.086 115.291 75.292 49.228c25.896-63.01 133.245-77.89 133.245-77.89"></path><path d="M-57.682 152.028s120.052-18.914 150.91-93.37c29.332-70.968 151.074-87.32 151.074-87.32"></path><path d="M-57.682 171.705S76.6 150.993 111.111 68.087c32.875-78.98 169.01-96.75 169.01-96.75"></path><path d="M-57.682 191.328s148.566-22.566 186.73-113.81c36.31-86.94 186.893-106.18 186.893-106.18"></path><path d="M-57.682 210.95s162.85-24.365 204.612-124.057C186.729-7.95 351.76-28.663 351.76-28.663"></path><path d="M-57.682 230.627s177.08-26.163 222.549-134.25c43.234-102.91 222.658-125.04 222.658-125.04"></path><path d="M-57.682 250.248s191.364-27.96 240.432-144.442C229.473-5.061 423.344-28.662 423.344-28.662"></path><path d="M-57.682 269.925s205.648-29.814 258.369-154.689C250.845-3.589 459.164-28.662 459.164-28.662"></path><path d="M-57.682 289.55s219.878-31.615 276.251-164.884C272.216-2.172 494.982-28.662 494.982-28.662"></path><path d="M-57.682 309.17s234.162-33.411 294.188-175.129C293.588-.7 530.801-28.662 530.801-28.662"></path><path d="M-57.682 328.847s248.446-35.264 312.125-185.322C314.959.772 566.567-28.662 566.567-28.662"></path><path d="M-57.682 348.471S204.993 311.407 272.325 152.9C336.331 2.189 602.387-28.662 602.387-28.662"></path><path d="M-57.682 368.095s276.96-38.864 347.944-205.765C357.703 3.66 638.206-28.662 638.206-28.662"></path><path d="M-57.682 387.772s291.244-40.665 365.826-216.012C379.074 5.132 674.025-28.662 674.025-28.662"></path><path d="M-57.682 407.392s305.473-42.514 383.763-226.203c74.365-174.64 383.71-209.851 383.71-209.851"></path></g></svg>