<svg width="16" height="16" fill="none" xmlns="http://www.w3.org/2000/svg"><path fillRule="evenodd" clipRule="evenodd" d="M15.155 2.825c.248.25.424.56.51.897.23 1.251.343 2.52.335 3.792a20.206 20.206 0 0 1-.335 3.736 1.967 1.967 0 0 1-.51.897 2.03 2.03 0 0 1-.9.526C13.002 13 8 13 8 13s-5.003 0-6.254-.327a2.033 2.033 0 0 1-.889-.502 1.97 1.97 0 0 1-.522-.864A20.2 20.2 0 0 1 0 7.514 20.2 20.2 0 0 1 .335 3.75c.086-.337.262-.647.51-.897a2.03 2.03 0 0 1 .9-.526C2.998 2 8 2 8 2s5.003 0 6.254.299c.343.095.653.276.901.526Zm-4.61 4.69L6.365 9.84V5.188l4.182 2.326Z" fill="currentColor"></path></svg>