<svg width="107" height="72" viewBox="0 0 107 72" fill="none" xmlns="http://www.w3.org/2000/svg">
<mask id="mask0_4607_1279" style="mask-type:luminance" maskUnits="userSpaceOnUse" x="0" y="30" width="107" height="12">
<path d="M107 30.8828H0V41.1176H107V30.8828Z" fill="white"/>
</mask>
<g mask="url(#mask0_4607_1279)">
<path d="M6.97519 36.3968C6.83572 36.2099 6.6962 36.0229 6.51021 35.8827C6.32421 35.7425 6.18469 35.6023 5.9987 35.5089C5.81266 35.3687 5.58014 35.2752 5.34768 35.2285C5.06864 35.135 4.88264 35.0415 4.69665 35.0415C4.60364 34.9948 4.37113 34.948 4.09212 34.8546L3.4876 34.7144C3.30159 34.6676 3.16209 34.6209 2.97608 34.5742C2.83658 34.5274 2.69707 34.434 2.55757 34.3405C2.46457 34.2938 2.37156 34.2003 2.32506 34.1068C2.23206 33.9666 2.18556 33.8264 2.23206 33.733C2.23206 33.4526 2.37156 33.1722 2.65057 33.0319C2.92958 32.8917 3.25509 32.7983 3.5806 32.7983C3.95261 32.7983 4.32463 32.8917 4.60363 33.1254C4.88264 33.3591 5.02216 33.6862 5.02216 34.0134H7.06824C7.11471 33.1722 6.7892 32.3309 6.13817 31.7234C5.58014 31.2093 4.69665 30.9289 3.6271 30.9289C2.69707 30.8822 1.81354 31.1158 1.06952 31.6767C0.418499 32.1907 0.0929882 32.9852 0.139489 33.8264C0.139489 34.0601 0.139489 34.247 0.185991 34.434C0.232492 34.6209 0.278994 34.8078 0.371997 34.9948C0.465 35.135 0.558002 35.3219 0.651008 35.4154C0.74401 35.5089 0.883515 35.6491 0.976516 35.7425C1.11602 35.836 1.25553 35.9295 1.39503 36.0229C1.58104 36.1164 1.72054 36.1631 1.86005 36.2566C1.99955 36.3033 2.18556 36.3968 2.37156 36.4436C2.60407 36.4903 2.74358 36.537 2.83658 36.5838L3.34809 36.7239L3.95261 36.8642C4.09212 36.9109 4.27812 36.9576 4.46413 37.0511C4.60363 37.0978 4.78965 37.1913 4.92917 37.2848C5.02216 37.3782 5.11516 37.4717 5.16163 37.5651C5.25468 37.7054 5.25468 37.7988 5.25468 37.939C5.25468 38.2662 5.11516 38.5933 4.78965 38.7802C4.46413 39.0139 4.09212 39.1074 3.72011 39.1074C3.5341 39.1074 3.30159 39.0607 3.11559 39.0139C2.92958 38.9672 2.74357 38.8737 2.60407 38.7802C2.46457 38.6868 2.32506 38.4999 2.23206 38.3596C2.13905 38.1727 2.09255 37.939 2.09255 37.7521H-1.50264e-05C-0.0465165 38.6868 0.325495 39.5747 1.02302 40.1823C1.76704 40.7898 2.74358 41.1169 3.72011 41.0702C4.37113 41.0702 4.97564 40.9768 5.58014 40.7431C6.0917 40.5094 6.55668 40.1823 6.8822 39.6682C7.20771 39.1541 7.39375 38.5466 7.39375 37.939C7.39375 37.6587 7.34723 37.3782 7.25423 37.0978C7.20771 36.8174 7.11471 36.5838 6.97519 36.3968Z" fill="white"/>
<path d="M39.3896 39.5275C38.6921 39.9948 37.855 40.2285 37.018 40.2285C36.274 40.2285 35.53 40.0415 34.8325 39.6677C34.1814 39.2938 33.6699 38.7797 33.3444 38.1255C32.6469 36.7234 32.6469 35.0877 33.3444 33.6857C33.7164 33.0314 34.2279 32.5173 34.8789 32.1435C35.53 31.7696 36.274 31.5827 37.0645 31.5827C37.9016 31.5827 38.6921 31.8163 39.3896 32.2369C39.9941 32.751 40.5057 33.3586 40.7846 34.1063H41.4822C41.2032 33.1716 40.5987 32.3771 39.8081 31.8163C38.9711 31.2555 37.9946 30.9284 36.9715 30.9751C36.088 30.9751 35.2045 31.1621 34.414 31.6294C33.6699 32.05 33.0654 32.6575 32.6469 33.4053C32.2749 34.153 32.0889 35.041 32.0889 35.9757C32.0424 37.2842 32.5539 38.5928 33.4839 39.5275C34.414 40.4621 35.716 40.9762 37.018 40.9295C37.7156 40.9295 38.4131 40.7893 39.0641 40.5089C39.6686 40.2285 40.2266 39.8546 40.6451 39.3406C41.0636 38.8264 41.3892 38.2189 41.5752 37.5646H40.8776C40.5987 38.4058 40.0871 39.0601 39.3896 39.5275Z" fill="white"/>
<path d="M46.9669 30.9288C44.3163 30.8353 42.0842 32.9383 41.9911 35.6489C41.9911 35.7424 41.9911 35.8358 41.9911 35.9761C41.8981 38.7334 44.0837 41.0701 46.8738 41.1168C49.6172 41.2103 51.9424 39.0138 51.9889 36.2097C51.9889 36.1163 51.9889 36.0228 51.9889 35.9294C52.0819 33.2655 49.9894 31.0222 47.2925 30.9288C47.1995 30.9288 47.1064 30.9288 46.9669 30.9288ZM51.2915 35.9294C51.2915 36.6771 51.1055 37.4716 50.7333 38.1258C50.3616 38.7801 49.8498 39.2942 49.199 39.6681C48.5477 40.0419 47.7573 40.2289 47.0134 40.2289C44.7348 40.3224 42.7817 38.4997 42.7352 36.163C42.7352 36.0695 42.7352 36.0228 42.7352 35.9294C42.6887 33.5926 44.5022 31.6765 46.7808 31.6298C46.8738 31.6298 46.9669 31.6298 47.0134 31.6298C47.8038 31.6298 48.5477 31.8167 49.199 32.1906C49.8498 32.5645 50.3616 33.0786 50.7333 33.7328C51.1055 34.4338 51.2915 35.1816 51.2915 35.9294Z" fill="white"/>
<path d="M59.5245 39.5282L53.4324 31.0693H52.8281V40.79H53.479V32.3312L59.617 40.79H60.2218V31.0693H59.5245V39.5282Z" fill="white"/>
<path d="M67.6104 36.8172C67.5174 36.6303 67.3778 36.4901 67.1917 36.3966C67.0522 36.2564 66.8661 36.1629 66.7265 36.0695C66.5409 35.976 66.3083 35.8825 66.1222 35.8358C65.8431 35.7423 65.657 35.6956 65.5179 35.6489C65.3783 35.6021 65.1457 35.5554 64.8666 35.5086C64.5874 35.4619 64.4018 35.4152 64.3088 35.3684C64.1692 35.3217 63.9831 35.275 63.797 35.2282C63.4719 35.1348 63.1462 34.9946 62.8671 34.8076C62.7275 34.7142 62.6345 34.6207 62.5414 34.4805C62.4484 34.3403 62.4023 34.2001 62.3558 34.0599C62.3093 33.8729 62.2627 33.7327 62.2627 33.5458C62.2627 33.1719 62.3558 32.8448 62.5879 32.5177C62.8205 32.2372 63.0997 32.0036 63.4718 31.8634C63.8901 31.6764 64.3088 31.6297 64.727 31.6297C65.3783 31.583 65.9826 31.8166 66.4478 32.1905C66.8661 32.5644 67.1452 33.1252 67.0987 33.686H67.796C67.8426 32.9383 67.5174 32.1905 66.9591 31.6764C66.3083 31.1624 65.5179 30.882 64.6805 30.9287C63.8436 30.882 63.0532 31.1156 62.4023 31.6297C61.8441 32.097 61.5184 32.7981 61.5184 33.4991C61.5184 33.7327 61.5649 33.9664 61.6114 34.2001C61.658 34.387 61.751 34.574 61.8441 34.7609C61.9371 34.9478 62.0767 35.088 62.2627 35.1815C62.4023 35.275 62.5879 35.4152 62.774 35.5086C62.9601 35.6021 63.1462 35.6956 63.3788 35.7423C63.6575 35.8358 63.8436 35.8825 63.9831 35.9292L64.634 36.0695C64.8666 36.1162 65.0527 36.1629 65.1457 36.1629C65.2387 36.2097 65.4248 36.2097 65.6109 36.3031C65.75 36.3498 65.9361 36.3966 66.0757 36.4433C66.1687 36.4901 66.3083 36.5368 66.4478 36.6303C66.5874 36.677 66.6805 36.7704 66.8196 36.864C66.9126 36.9574 66.9591 37.0509 67.0522 37.1443C67.1452 37.2378 67.1917 37.378 67.2383 37.5182C67.2848 37.6584 67.2848 37.8453 67.2848 37.9855C67.2848 38.5931 67.0522 39.1072 66.5874 39.481C66.0757 39.9016 65.4248 40.0886 64.7735 40.0419C64.0762 40.0886 63.3788 39.8549 62.8205 39.3876C62.3093 38.967 62.0301 38.3594 62.0767 37.7052H61.3788C61.3328 38.5464 61.7045 39.3408 62.3093 39.9016C63.0066 40.4625 63.8901 40.7429 64.8201 40.6961C65.657 40.7429 66.4944 40.4625 67.1452 39.9484C67.75 39.481 68.0752 38.7333 68.0752 37.9388C68.0752 37.7052 68.0287 37.4247 67.9821 37.1911C67.8426 37.1911 67.75 37.0041 67.6104 36.8172Z" fill="white"/>
<path d="M67.7969 31.7703H70.8659V40.79H71.5168V31.7703H74.6323V31.0693H67.7969V31.7703Z" fill="white"/>
<path d="M81.1441 35.7425C81.5628 35.2285 81.7954 34.6209 81.7954 33.9199C81.7954 33.1722 81.5163 32.4244 80.958 31.9103C80.3537 31.3495 79.6098 31.0691 78.8189 31.1159H75.2852V40.7898H75.9825V36.724H78.6794L81.0976 40.7898H81.888L79.4237 36.6772C80.0746 36.5838 80.7259 36.2566 81.1441 35.7425ZM75.9825 36.0697V31.7701H78.8189C79.4237 31.7701 80.028 31.9571 80.4933 32.3777C81.3302 33.2189 81.3767 34.5742 80.5398 35.4154L80.4933 35.4621C80.028 35.8828 79.4237 36.0697 78.8189 36.0697H75.9825Z" fill="white"/>
<path d="M89.4701 37.1446C89.4701 37.7055 89.3306 38.2662 89.0984 38.7336C88.8658 39.201 88.4936 39.5748 88.0289 39.8085C87.5637 40.0889 87.0519 40.1824 86.4941 40.1824C85.7037 40.2291 84.9129 39.9019 84.3551 39.2944C83.7973 38.6869 83.4716 37.8924 83.5181 37.0979V31.0225H82.8203V37.1446C82.8203 37.7989 82.9599 38.4532 83.2855 39.0607C83.6112 39.6216 84.0294 40.0889 84.5877 40.3693C85.1455 40.6964 85.7968 40.8367 86.4941 40.8367C87.4706 40.8834 88.4006 40.4628 89.0984 39.7618C89.7958 39.0607 90.168 38.0793 90.1214 37.0979V31.0225H89.4236L89.4701 37.1446Z" fill="white"/>
<path d="M98.4429 39.5278C97.7455 39.9952 96.9081 40.2288 96.0712 40.2288C95.3273 40.2288 94.5834 40.0419 93.8856 39.668C93.2348 39.2942 92.723 38.7801 92.3979 38.1258C91.7 36.7237 91.7 35.0881 92.3979 33.6861C92.723 33.0318 93.2813 32.5177 93.8856 32.1438C94.5369 31.7699 95.2808 31.583 96.0712 31.583C96.9081 31.583 97.699 31.8167 98.3964 32.2373C99.0472 32.6579 99.5589 33.3122 99.8381 34.0599H100.535C100.256 33.1252 99.652 32.3308 98.8616 31.7699C98.0242 31.2091 97.0477 30.882 96.0247 30.9287C95.1412 30.9287 94.2578 31.1157 93.4674 31.583C92.723 32.0036 92.1187 32.6112 91.7 33.3589C91.2818 34.1534 91.0492 35.0413 91.0957 35.9293C91.0492 37.2379 91.5605 38.5464 92.4909 39.4811C93.4209 40.4158 94.7225 40.9298 96.0247 40.8831C96.7225 40.8831 97.4199 40.7429 98.0707 40.4625C98.6755 40.1821 99.2333 39.8082 99.652 39.2942C100.07 38.7801 100.396 38.1725 100.582 37.5182H99.8846C99.652 38.3595 99.1403 39.0605 98.4429 39.5278Z" fill="white"/>
<path d="M100.164 31.0693V31.7703H103.233V40.79H103.931V31.7703H107V31.0693H100.164Z" fill="white"/>
<path d="M13.2097 30.8823C10.4196 30.8823 8.1875 33.1256 8.1875 35.9296C8.1875 38.7337 10.4196 40.9769 13.2097 40.9769C15.9998 40.9769 18.2318 38.7337 18.2318 35.9296C18.2318 33.1723 15.9998 30.8823 13.2097 30.8823ZM13.2097 38.9206C11.5821 38.9206 10.2336 37.5653 10.2336 35.9296C10.2336 34.2939 11.5821 32.9386 13.2097 32.9386C14.8372 32.9386 16.1858 34.2939 16.1858 35.9296C16.1858 37.6121 14.8837 38.9206 13.2097 38.9206Z" fill="white"/>
<path d="M32.0881 31.0693H29.4375V33.0322H32.0881V31.0693Z" fill="white"/>
<path d="M29.4363 33.0322H27.3438V40.7901H29.4363V33.0322Z" fill="white"/>
<path d="M19.1562 31.0693V40.79H21.2488V37.0513H24.5504V35.1819H21.2488V33.0322H27.3405V31.0693H19.1562Z" fill="white"/>
</g>
</svg>
