<svg width="124" height="72" viewBox="0 0 124 72" fill="none" xmlns="http://www.w3.org/2000/svg">
<mask id="mask0_4607_1264" style="mask-type:luminance" maskUnits="userSpaceOnUse" x="0" y="27" width="124" height="19">
<path d="M0 27H124V45.4558H0V27Z" fill="white"/>
</mask>
<g mask="url(#mask0_4607_1264)">
<path d="M20.8322 41.5516L17.4308 45.2043C17.3573 45.2836 17.2682 45.347 17.1691 45.3903C17.07 45.4336 16.9631 45.456 16.855 45.4561H0.731133C0.654231 45.4561 0.57901 45.4336 0.514681 45.3914C0.450352 45.3492 0.399706 45.2891 0.368947 45.2185C0.338187 45.1479 0.328647 45.0699 0.341496 44.9939C0.354345 44.918 0.389024 44.8475 0.441288 44.791L3.83881 41.1383C3.91238 41.0589 4.00148 40.9956 4.10055 40.9523C4.19963 40.9089 4.30655 40.8865 4.41466 40.8864H20.5385C20.6161 40.8848 20.6925 40.9062 20.7579 40.948C20.8234 40.9897 20.8751 41.0499 20.9065 41.121C20.9379 41.1922 20.9476 41.271 20.9344 41.3476C20.9211 41.4242 20.8856 41.4952 20.8322 41.5516ZM17.4308 34.1943C17.357 34.1153 17.2678 34.0522 17.1688 34.0089C17.0698 33.9656 16.963 33.943 16.855 33.9424H0.731133C0.654231 33.9425 0.57901 33.965 0.514681 34.0072C0.450352 34.0494 0.399706 34.1094 0.368947 34.18C0.338187 34.2506 0.328647 34.3287 0.341496 34.4046C0.354345 34.4805 0.389024 34.5511 0.441288 34.6076L3.83881 38.2622C3.91266 38.3412 4.00182 38.4043 4.10083 38.4476C4.19984 38.4909 4.30663 38.5135 4.41466 38.5141H20.5385C20.6152 38.5136 20.6902 38.4909 20.7542 38.4485C20.8183 38.4062 20.8686 38.3461 20.8992 38.2756C20.9297 38.205 20.9391 38.1272 20.9261 38.0514C20.9132 37.9756 20.8786 37.9053 20.8264 37.8489L17.4308 34.1943ZM0.731133 31.5701H16.855C16.9631 31.57 17.07 31.5476 17.1691 31.5042C17.2682 31.4609 17.3573 31.3976 17.4308 31.3182L20.8322 27.6655C20.8721 27.6233 20.9021 27.5728 20.9202 27.5176C20.9383 27.4624 20.9441 27.4038 20.937 27.3462C20.9299 27.2885 20.9101 27.2331 20.8792 27.1839C20.8482 27.1348 20.8068 27.0931 20.7579 27.0618C20.6924 27.0201 20.6161 26.9987 20.5385 27.0003H4.41466C4.30655 27.0004 4.19963 27.0229 4.10055 27.0662C4.00148 27.1095 3.91238 27.1728 3.83881 27.2522L0.441288 30.9049C0.389024 30.9614 0.354345 31.0319 0.341496 31.1079C0.328647 31.1838 0.338187 31.2618 0.368947 31.3324C0.399706 31.403 0.450352 31.4631 0.514681 31.5053C0.57901 31.5475 0.654231 31.57 0.731133 31.5701Z" fill="white"/>
<path d="M40.4899 34.8058H31.8636V31.9605H42.7319V29.1152H31.8348C31.4625 29.1131 31.0934 29.1845 30.7487 29.3254C30.4039 29.4662 30.0902 29.6736 29.8255 29.9359C29.5608 30.1981 29.3503 30.5101 29.2059 30.8538C29.0616 31.1976 28.9863 31.5664 28.9844 31.9393V34.8231C28.9858 35.1963 29.0608 35.5656 29.2049 35.9098C29.3489 36.254 29.5594 36.5663 29.8241 36.829C30.0889 37.0917 30.4028 37.2995 30.7478 37.4405C31.0928 37.5816 31.4622 37.6531 31.8348 37.651H40.4726V40.4963H29.1898V43.3416H40.4899C41.0506 43.3447 41.5997 43.1812 42.0677 42.8717C42.5356 42.5622 42.9014 42.1206 43.1186 41.6029C43.263 41.2592 43.3384 40.8903 43.3403 40.5174V37.6337C43.3389 37.2605 43.2639 36.8912 43.1198 36.547C42.9757 36.2029 42.7653 35.8905 42.5005 35.6278C42.2358 35.3652 41.9219 35.1574 41.5769 35.0163C41.2319 34.8753 40.8625 34.8037 40.4899 34.8058ZM57.2011 29.1152H48.5422C47.9805 29.1107 47.4301 29.2734 46.9609 29.5827C46.4917 29.8919 46.1247 30.3338 45.9065 30.8522C45.7616 31.1964 45.686 31.5658 45.6841 31.9393V40.5174C45.686 40.891 45.7616 41.2605 45.9065 41.6048C46.1247 42.1232 46.4916 42.5651 46.9609 42.8743C47.4301 43.1835 47.9805 43.3461 48.5422 43.3416H57.2011C57.5734 43.3436 57.9425 43.2722 58.2873 43.1314C58.632 42.9906 58.9457 42.7832 59.2104 42.5209C59.4751 42.2586 59.6857 41.9467 59.83 41.603C59.9743 41.2592 60.0496 40.8903 60.0516 40.5174V31.9393C60.0496 31.5664 59.9743 31.1976 59.83 30.8539C59.6856 30.5101 59.475 30.1983 59.2102 29.9361C58.9456 29.6738 58.632 29.4662 58.2872 29.3254C57.9425 29.1845 57.5734 29.1131 57.2011 29.1152ZM57.18 40.4963H48.5633V31.9605H57.1761L57.18 40.4963ZM87.5293 29.1152H79.0834C78.7111 29.1131 78.342 29.1845 77.9973 29.3254C77.6525 29.4662 77.3388 29.6736 77.0741 29.9359C76.8094 30.1981 76.5989 30.5101 76.4546 30.8538C76.3102 31.1976 76.2349 31.5664 76.233 31.9393V43.3416H79.1122V38.668H87.5197V43.3416H90.3989V31.9393C90.397 31.5648 90.3211 31.1943 90.1756 30.8493C90.0301 30.5042 89.8179 30.1914 89.5512 29.9289C89.2844 29.6664 88.9684 29.4593 88.6214 29.3197C88.2744 29.18 87.9032 29.1105 87.5293 29.1152ZM87.5082 35.8227H79.1007V31.9605H87.5082V35.8227ZM121.149 29.1152H112.704C112.331 29.1131 111.962 29.1845 111.617 29.3254C111.273 29.4662 110.959 29.6736 110.694 29.9359C110.43 30.1981 110.219 30.5101 110.075 30.8538C109.93 31.1976 109.855 31.5664 109.853 31.9393V43.3416H112.732V38.668H121.121V43.3416H124V31.9393C123.998 31.5664 123.923 31.1976 123.778 30.8539C123.634 30.5101 123.423 30.1983 123.159 29.9361C122.624 29.4065 121.901 29.1112 121.149 29.1152ZM121.121 35.8227H112.713V31.9605H121.121V35.8227ZM104.421 40.4963H103.269L99.1519 30.3071C99.0108 29.9556 98.768 29.6543 98.4547 29.4419C98.1414 29.2295 97.7719 29.1157 97.3936 29.1152H94.8387C94.4648 29.1132 94.0986 29.2224 93.7866 29.4289C93.4746 29.6354 93.2308 29.93 93.086 30.2754C92.9899 30.5047 92.9398 30.7506 92.9384 30.9992V43.3416H95.8177V31.9605H96.9694L101.085 42.1496C101.228 42.5006 101.473 42.8007 101.787 43.0116C102.102 43.2226 102.472 43.3348 102.851 43.3339H105.406C105.654 43.3352 105.9 43.2875 106.13 43.1935C106.36 43.0995 106.569 42.961 106.745 42.786C107.102 42.4326 107.303 41.952 107.306 41.4498V29.1152H104.421V40.4963ZM65.4742 29.1152H62.5949V40.5174C62.5968 40.8911 62.6724 41.2608 62.8174 41.6051C62.9623 41.9495 63.1737 42.2618 63.4395 42.5241C63.7052 42.7865 64.02 42.9937 64.3659 43.134C64.7117 43.2743 65.0818 43.3448 65.455 43.3416H74.0927V40.4963H65.4742V29.1152Z" fill="white"/>
</g>
</svg>
