<svg width="72" height="72" viewBox="0 0 72 72" fill="none" xmlns="http://www.w3.org/2000/svg">
<path d="M26.7213 42.333L22.0615 33.226C21.9349 32.9841 22.0615 32.8125 22.3083 32.8125H23.4176C23.5046 32.8102 23.5903 32.834 23.6628 32.8806C23.7354 32.9272 23.7914 32.9943 23.823 33.0728L27.8133 40.9952L31.7909 33.0708C31.8225 32.9923 31.8785 32.9252 31.9511 32.8786C32.0236 32.832 32.1093 32.8082 32.1963 32.8105H33.3052C33.5714 32.8105 33.6751 32.9841 33.5545 33.2236L28.8739 42.33C28.8423 42.4095 28.7859 42.4776 28.7124 42.5246C28.639 42.5716 28.5522 42.5953 28.4642 42.5924H27.1102C27.0262 42.5912 26.9444 42.5658 26.8753 42.5194C26.8062 42.473 26.753 42.4078 26.7224 42.332" fill="white"/>
<path d="M34.8024 30.6556V29.7299C34.788 29.6482 34.8077 29.5643 34.857 29.4965C34.9064 29.4288 34.9814 29.3827 35.0658 29.3682C35.1007 29.3617 35.1366 29.3617 35.1715 29.3682H36.1327C36.1738 29.361 36.2159 29.3617 36.2567 29.3703C36.2975 29.3788 36.3362 29.3951 36.3705 29.4181C36.4048 29.4412 36.434 29.4705 36.4566 29.5045C36.4791 29.5385 36.4945 29.5765 36.5019 29.6163C36.5019 29.6163 36.5019 29.6163 36.5019 29.6183C36.5082 29.6553 36.5082 29.693 36.5019 29.7299V30.6556C36.517 30.7363 36.4986 30.8195 36.4507 30.8872C36.4029 30.9549 36.3294 31.0016 36.2462 31.0173C36.2085 31.0234 36.17 31.0234 36.1323 31.0173H35.1719C35.1299 31.0236 35.0871 31.0219 35.0458 31.0123C35.0046 31.0026 34.9657 30.9852 34.9313 30.961C34.897 30.9368 34.868 30.9063 34.8458 30.8712C34.8237 30.8361 34.8089 30.7972 34.8024 30.7566C34.7959 30.7228 34.7959 30.6881 34.8024 30.6542M34.8024 42.2254V33.158C34.7868 33.0775 34.8047 32.9942 34.8523 32.9265C34.8998 32.8587 34.9731 32.8119 35.0562 32.7963C35.0941 32.7902 35.1327 32.7902 35.1705 32.7963H36.1316C36.1727 32.7891 36.2149 32.7897 36.2557 32.7983C36.2965 32.8069 36.3351 32.8231 36.3694 32.8462C36.4037 32.8692 36.433 32.8986 36.4555 32.9326C36.4781 32.9666 36.4935 33.0046 36.5008 33.0443C36.5008 33.0443 36.5008 33.0443 36.5008 33.0464C36.5071 33.0833 36.5071 33.121 36.5008 33.158V42.2496C36.516 42.3303 36.4977 42.4135 36.4498 42.4812C36.4019 42.5488 36.3284 42.5955 36.2452 42.611C36.2075 42.6174 36.169 42.6174 36.1313 42.611H35.1719C35.13 42.6174 35.0871 42.6157 35.0459 42.6061C35.0046 42.5965 34.9657 42.5791 34.9314 42.5549C34.897 42.5307 34.868 42.5002 34.8459 42.4652C34.8237 42.4301 34.8089 42.3912 34.8024 42.3506C34.7959 42.3168 34.7959 42.2821 34.8024 42.2483V42.2254Z" fill="white"/>
<path d="M48.8066 36.6767V38.7802C48.8066 41.3116 48.0926 42.5945 45.1101 42.5945H42.9977C41.3797 42.5945 40.5627 42.1813 40.1696 41.3218V42.2454C40.1838 42.3272 40.1641 42.4111 40.1147 42.4788C40.0653 42.5466 39.9902 42.5927 39.9058 42.6071C39.8707 42.6112 39.8352 42.6112 39.8001 42.6071H38.8389C38.7542 42.6198 38.6678 42.5995 38.5985 42.5508C38.5292 42.502 38.4826 42.4286 38.469 42.3468C38.4651 42.3128 38.4651 42.2784 38.469 42.2444V29.7298C38.4553 29.6478 38.4756 29.5638 38.5254 29.4961C38.5752 29.4284 38.6506 29.3824 38.7352 29.3681C38.7695 29.3617 38.8047 29.3617 38.8389 29.3681H39.8001C39.8415 29.3613 39.884 29.3624 39.925 29.3714C39.966 29.3805 40.0047 29.3973 40.039 29.4209C40.0733 29.4444 40.1024 29.4744 40.1247 29.5089C40.147 29.5434 40.162 29.5818 40.1689 29.622V29.6264C40.1751 29.6603 40.1751 29.6949 40.1689 29.7288V34.0689C40.562 33.2159 41.3789 32.8003 42.997 32.8003H45.1094C48.0919 32.8105 48.8059 34.0791 48.8059 36.6767M47.1315 36.5327C47.1315 34.7243 46.7387 34.363 45.1019 34.363H42.2227C40.8123 34.363 40.1738 34.6793 40.1738 36.5327V38.8986C40.1738 40.7274 40.8085 41.0393 42.2227 41.0393H45.0974C46.7348 41.0393 47.1276 40.6551 47.1276 38.8986L47.1315 36.5327Z" fill="white"/>
<path d="M50.4062 38.7306V36.6271C50.4062 34.0957 51.116 32.8169 54.1028 32.8169H56.6143C59.5884 32.8169 60.3109 34.1039 60.3109 36.6271V38.1966C60.3246 38.2787 60.3043 38.3626 60.2545 38.4303C60.2046 38.498 60.1293 38.544 60.0446 38.5583C60.0104 38.5644 59.9752 38.5644 59.941 38.5583H52.0687V38.8869C52.0687 40.6952 52.4615 41.0566 54.1176 41.0566H59.1194C59.1607 41.0493 59.203 41.05 59.244 41.0587C59.285 41.0674 59.3237 41.0838 59.3581 41.1071C59.3925 41.1303 59.4217 41.1599 59.4442 41.1942C59.4666 41.2285 59.4819 41.2667 59.489 41.3067C59.4953 41.3436 59.4953 41.3813 59.489 41.4182V42.2713C59.5 42.3474 59.4819 42.4248 59.4379 42.4888C59.3939 42.5529 59.3271 42.599 59.2503 42.6186C59.2133 42.6247 59.1755 42.6247 59.1385 42.6186H54.088C51.116 42.5937 50.4062 41.322 50.4062 38.7289M58.6167 37.057V36.5029C58.6167 34.7406 58.2239 34.3581 56.5716 34.3581H54.1257C52.4685 34.3581 52.0768 34.7406 52.0768 36.5029V37.0587L58.6167 37.057Z" fill="white"/>
<path d="M61.8316 42.2454V41.3924C61.8161 41.312 61.8341 41.2289 61.8817 41.1613C61.9292 41.0936 62.0025 41.047 62.0855 41.0314C62.123 41.0232 62.1619 41.0232 62.1994 41.0314H67.2879C68.8746 41.0314 69.3178 40.7196 69.3178 39.8311C69.3178 38.9426 69.0156 38.717 67.5728 38.5744L64.5822 38.281C62.3051 38.0561 61.625 37.1963 61.625 35.4603C61.625 33.6519 62.7127 32.7989 65.2034 32.7989H70.1503C70.1913 32.7917 70.2335 32.7924 70.2743 32.8009C70.3151 32.8095 70.3538 32.8257 70.388 32.8488C70.4223 32.8718 70.4516 32.9012 70.4741 32.9352C70.4967 32.9692 70.5121 33.0072 70.5194 33.047C70.5194 33.047 70.5194 33.047 70.5194 33.049C70.5258 33.0859 70.5258 33.1236 70.5194 33.1606V34.0136C70.5345 34.0943 70.5162 34.1776 70.4683 34.2453C70.4205 34.3131 70.347 34.3599 70.2638 34.3756C70.2261 34.3817 70.1876 34.3817 70.1499 34.3756H65.2285C63.7857 34.3756 63.2871 34.7369 63.2871 35.6152C63.2871 36.4416 63.5572 36.6794 64.8544 36.8159L67.8115 37.1318C70.3777 37.4089 70.999 38.3137 70.999 40.0249C70.999 41.9196 69.9303 42.6344 67.2615 42.6344H62.1909C62.1496 42.6404 62.1074 42.6384 62.0669 42.6286C62.0263 42.6188 61.9882 42.6013 61.9546 42.5772C61.9211 42.553 61.8928 42.5227 61.8714 42.488C61.85 42.4532 61.8359 42.4148 61.8299 42.3747C61.8299 42.3747 61.8299 42.373 61.8299 42.372C61.8212 42.3304 61.8219 42.2874 61.832 42.2461" fill="white"/>
<path d="M14.9042 32.661C16.8759 32.661 17.7669 33.5823 18.1375 34.179C18.146 34.193 18.1572 34.2052 18.1706 34.2149C18.1839 34.2246 18.1991 34.2317 18.2153 34.2357C18.2315 34.2397 18.2484 34.2405 18.2649 34.2382C18.2814 34.2358 18.2973 34.2304 18.3117 34.222C18.3313 34.2106 18.3473 34.1944 18.3582 34.1749C18.3691 34.1555 18.3745 34.1336 18.3737 34.1115V27.0131C18.3737 25.9012 17.4521 25 16.3153 25H10.9475C9.80651 24.9929 8.87567 25.8916 8.86721 27.0077V30.6299C8.86227 31.7459 9.78183 32.6546 10.9225 32.661H14.9042Z" fill="white"/>
<path d="M14.7747 33.9341H10.4805C8.83149 33.9239 7.50293 32.6092 7.51174 30.996V29.1501H4.80526C2.70453 29.1501 1.00012 30.8159 1.00012 32.8713V46.7582C0.998463 46.8098 1.0145 46.8605 1.04573 46.9024C1.07695 46.9443 1.12162 46.975 1.17276 46.9898C1.2239 47.0045 1.27865 47.0025 1.32848 46.984C1.37831 46.9655 1.42043 46.9316 1.44826 46.8875C2.19681 45.7274 3.96399 43.7372 7.14999 43.7372H14.5671C16.6689 43.7372 18.3726 42.0704 18.3726 40.0147V37.6137C18.3726 35.8278 16.9291 33.9341 14.7761 33.9341" fill="white"/>
</svg>
